<?xml version="1.0" encoding="utf-8"?>
<!-- Generator: Adobe Illustrator 18.1.1, SVG Export Plug-In . SVG Version: 6.00 Build 0)  -->
<!DOCTYPE svg PUBLIC "-//W3C//DTD SVG 1.1//EN" "http://www.w3.org/Graphics/SVG/1.1/DTD/svg11.dtd">
<svg version="1.1" id="Capa_1" xmlns="http://www.w3.org/2000/svg" xmlns:xlink="http://www.w3.org/1999/xlink" x="0px" y="0px"
	 viewBox="0 0 450 200" enable-background="new 0 0 450 200" xml:space="preserve">
<g>
	<path fill="#FFFFFF" d="M92.3,91H74.5v46c0,12.5-5,22.1-19.9,22.1c-9.7,0-15.5-5.2-15.5-19.4V91H21.3v50.4
		c0,21.1,9.1,31.8,30.2,31.8c8.9,0,18.6-5.3,23-13.5h0.3v11.3h17.5V91L92.3,91z"/>
	<polygon fill="#CB0017" points="31.6,68.8 82,68.8 82,77.7 31.6,77.7 31.6,68.8 	"/>
	<path fill="#CB0017" d="M50.7,30.9c0-3.5,2.8-6.3,6.3-6.3c3.5,0,6.3,2.8,6.3,6.3c0,3.5-2.8,6.3-6.3,6.3
		C53.5,37.2,50.7,34.4,50.7,30.9L50.7,30.9z"/>
	<path fill="#CB0017" d="M21.3,52.5c0-5.7,4.6-10.4,10.4-10.4c5.7,0,10.4,4.6,10.4,10.4c0,5.7-4.6,10.4-10.4,10.4
		C25.9,62.9,21.3,58.2,21.3,52.5L21.3,52.5z"/>
	<path fill="#CB0017" d="M46.5,52.5c0-5.7,4.6-10.4,10.4-10.4c5.7,0,10.4,4.6,10.4,10.4c0,5.7-4.6,10.4-10.4,10.4
		C51.1,62.9,46.5,58.2,46.5,52.5L46.5,52.5z"/>
	<path fill="#CB0017" d="M71.6,52.5c0-5.7,4.6-10.4,10.4-10.4c5.7,0,10.4,4.6,10.4,10.4c0,5.7-4.6,10.4-10.4,10.4
		C76.3,62.9,71.6,58.2,71.6,52.5L71.6,52.5z"/>
	<path fill="#FFFFFF" d="M172.2,91h-4.4v18c0,2.9-0.4,5.2-2,6.8c-1.4,1.4-3.9,2.5-7.3,2.5c-2.7,0-4.9-0.9-6.7-2.6
		c-1.4-1.4-1.9-2.9-1.9-6.3V91h-4.4v19.2c0,8.4,6.3,12.1,12.9,12.1c9.2,0,13.7-5,13.7-12.6V91L172.2,91z"/>
	<path fill-rule="evenodd" clip-rule="evenodd" fill="#FFFFFF" d="M205.7,101.6h-4v20.4h4V101.6L205.7,101.6z M206.1,95.4
		c0-1.3-1.1-2.4-2.4-2.4c-1.3,0-2.4,1.1-2.4,2.4c0,1.3,1.1,2.4,2.4,2.4C205,97.8,206.1,96.7,206.1,95.4L206.1,95.4z"/>
	<path fill-rule="evenodd" clip-rule="evenodd" fill="#FFFFFF" d="M249.4,116c-2.4,1.5-4.7,2.4-7.1,2.4c-3.9,0-6.2-2.1-6.8-6.1h14.3
		c0-7.5-3.4-11.2-8.8-11.2c-5.6,0-9.5,4.2-9.5,10.3c0,5.6,3.5,10.8,9.9,10.8c3.4,0,5.7-0.8,8.1-2.4V116L249.4,116z M235.6,109.7
		c0.5-3.2,2.4-5,5.5-5c2.9,0,4.6,1.9,4.8,5H235.6L235.6,109.7z"/>
	<path fill-rule="evenodd" clip-rule="evenodd" fill="#FFFFFF" d="M294.8,101.6h-4v20.4h4V101.6L294.8,101.6z M295.3,95.4
		c0-1.3-1.1-2.4-2.4-2.4c-1.3,0-2.4,1.1-2.4,2.4c0,1.3,1.1,2.4,2.4,2.4C294.2,97.8,295.3,96.7,295.3,95.4L295.3,95.4z"/>
	<path fill-rule="evenodd" clip-rule="evenodd" fill="#FFFFFF" d="M318.3,91h-4v11c-1.6-0.6-2.9-0.8-4.3-0.8
		c-5.9,0-10.2,4.2-10.2,10.1c0,6.5,3.8,10.7,9.9,10.7h8.6V91L318.3,91z M314.3,118.5h-4.1c-4.7,0-6.2-2.9-6.2-6.7
		c0-4.3,2.6-7.1,6.5-7.1c1.4,0,2.4,0.2,3.8,0.8V118.5L314.3,118.5z"/>
	<path fill-rule="evenodd" clip-rule="evenodd" fill="#FFFFFF" d="M341,118.3c-0.9,0.7-1.7,1.1-2.1,1.1c-0.5,0-0.8-0.3-0.8-1v-10.5
		c0-4.6-3.3-6.7-7.4-6.7c-2.9,0-5.2,0.9-6.8,2.8v4.4c2-2.3,4.2-3.4,6.4-3.4c2.4,0,3.7,1,3.7,3.6v1.1l-3.6,1.3
		c-3.3,1.2-6.9,2.4-6.9,6.4c0,2.6,2,5,5,5c1.9,0,3.7-0.7,5.5-2.1c0.4,1.5,1.3,2.1,3.1,2.1c1.3,0,2-0.4,3.9-1.6V118.3L341,118.3z
		 M334.1,117.8c-1.1,1-2.3,1.7-3.5,1.7c-1.7,0-2.9-1.2-2.9-2.9c0-2.4,3-3.6,6.4-4.8V117.8L334.1,117.8z"/>
	<path fill-rule="evenodd" clip-rule="evenodd" fill="#FFFFFF" d="M361.6,91h-4v11c-1.6-0.6-2.9-0.8-4.3-0.8
		c-5.9,0-10.2,4.2-10.2,10.1c0,6.5,3.8,10.7,9.9,10.7h8.6V91L361.6,91z M357.6,118.5h-4.1c-4.7,0-6.2-2.9-6.2-6.7
		c0-4.3,2.6-7.1,6.5-7.1c1.4,0,2.4,0.2,3.8,0.8V118.5L357.6,118.5z"/>
	<path fill="#FFFFFF" d="M285,102.8c-2.1-1.1-4.1-1.7-6-1.7c-4.1,0-6.7,2.1-6.7,5.5c0,5.5,9.5,7,9.5,9.8c0,1.4-1.4,2.2-3,2.3
		c-1.6,0-4-0.9-6.7-2.7v4.4c2.6,1.4,4.6,1.9,7.1,1.9c3.9,0,6.7-2.4,6.7-6c0-2.1-1.2-3.5-4.6-5.7c-3.6-2.1-4.9-3.2-4.9-4.1
		c0-1.1,1-1.9,2.7-1.9c1.5,0,3.6,0.6,5.9,2.1V102.8L285,102.8z"/>
	<path fill="#FFFFFF" d="M254.6,101.6v20.4h4v-10.7c0-3.5,2.2-6.3,4.9-6.3c1,0,2.5,0.8,3.8,2l2.1-3.5c-1.7-1.6-3.2-2.4-4.9-2.4
		c-1.9,0-3.9,1.5-5.9,5.1h-0.1v-4.7H254.6L254.6,101.6z"/>
	<polygon fill="#FFFFFF" points="219.1,122.3 220.5,122.3 229.4,101.6 225.1,101.6 219.8,114.1 214.3,101.6 209.9,101.6 
		219.1,122.3 	"/>
	<path fill="#FFFFFF" d="M182.6,101.6h-4v20.4h4v-14.6c1.9-2.1,3.3-2.9,5.1-2.9c2.5,0,4,2,4,4.9v12.6h4v-12.6c0-5.6-3.1-8.2-6.9-8.2
		c-2.3,0-4.5,1.1-6.1,3.1h-0.1V101.6L182.6,101.6z"/>
	<path fill-rule="evenodd" clip-rule="evenodd" fill="#FFFFFF" d="M145.7,140v30.9h4.4v-13.4h1.9c2.3,0,4.1,0.7,8.2,7.1l4.1,6.3h5.3
		c-2.1-2.9-2.9-4-4.2-6.1c-2.4-3.9-4.1-6.7-6.9-8.6c3.3-1.3,5.2-4,5.2-7.6c0-5.4-3.9-8.7-10.2-8.7H145.7L145.7,140z M150.1,143.8
		h2.9c4.3,0,6,1.8,6.1,4.7c0,2.6-1.3,5-6.1,5h-2.9V143.8L150.1,143.8z"/>
	<path fill-rule="evenodd" clip-rule="evenodd" fill="#FFFFFF" d="M189,165c-2.4,1.5-4.7,2.4-7.1,2.4c-3.9,0-6.2-2.1-6.8-6.1h14.3
		c0-7.5-3.4-11.2-8.8-11.2c-5.6,0-9.5,4.2-9.5,10.3c0,5.6,3.5,10.8,9.9,10.8c3.4,0,5.7-0.8,8.1-2.4V165L189,165z M175.2,158.7
		c0.5-3.2,2.4-5,5.5-5c2.9,0,4.6,2,4.8,5H175.2L175.2,158.7z"/>
	<path fill-rule="evenodd" clip-rule="evenodd" fill="#FFFFFF" d="M279.4,167.3c-0.9,0.7-1.7,1.1-2.1,1.1c-0.5,0-0.8-0.3-0.8-1
		v-10.5c0-4.6-3.3-6.7-7.4-6.7c-2.9,0-5.2,0.9-6.8,2.8v4.4c1.9-2.3,4.2-3.4,6.4-3.4c2.5,0,3.7,1,3.7,3.6v1.1l-3.6,1.3
		c-3.3,1.2-6.9,2.4-6.9,6.4c0,2.6,2,5,5,5c1.9,0,3.7-0.7,5.5-2.1c0.4,1.5,1.3,2.1,3.1,2.1c1.3,0,2-0.4,3.9-1.6V167.3L279.4,167.3z
		 M272.5,166.8c-1.1,1-2.3,1.7-3.5,1.7c-1.7,0-2.9-1.2-2.9-2.9c0-2.4,3-3.6,6.4-4.8V166.8L272.5,166.8z"/>
	<path fill="#FFFFFF" d="M344.4,142.1c-4.2-1.8-7.4-2.5-10.6-2.5c-9.8,0-17,6.9-17,16.3c0,6.5,5.1,15.4,16.7,15.4
		c4.9,0,8.2-1.1,11.2-2.7v-4.9c-3.5,2.3-7.3,3.5-10.8,3.5c-7.4,0-12.5-4.8-12.5-11.7c0-6.8,5.3-11.8,12.3-11.8c3.6,0,6.8,1,10.7,3.2
		V142.1L344.4,142.1z"/>
	<polygon fill="#FFFFFF" points="391.6,140 387.6,140 387.6,170.9 391.6,170.9 391.6,140 	"/>
	<path fill-rule="evenodd" clip-rule="evenodd" fill="#FFFFFF" d="M405.5,150.1c-6.1,0-10.8,4.5-10.8,10.4c0,6.3,4.5,10.8,10.8,10.8
		c6.5,0,11-4.4,11-10.8C416.6,154.5,411.9,150.1,405.5,150.1L405.5,150.1z M405.5,153.8c4,0,6.9,2.9,6.9,6.8c0,4.4-2.7,7.1-6.9,7.1
		c-3.9,0-6.6-2.9-6.6-7.2C398.9,156.6,401.7,153.8,405.5,153.8L405.5,153.8z"/>
	<path fill="#FFFFFF" d="M431.6,151.8c-2.1-1.1-4.1-1.7-6-1.7c-4.1,0-6.7,2.1-6.7,5.5c0,5.5,9.5,7,9.5,9.8c0,1.4-1.4,2.2-3,2.3
		c-1.6,0-4-0.9-6.7-2.7v4.4c2.6,1.4,4.6,1.9,7.1,1.9c3.9,0,6.7-2.4,6.7-6c0-2.1-1.2-3.5-4.6-5.7c-3.6-2.1-4.9-3.2-4.9-4.1
		c0-1.1,1-1.9,2.7-1.9c1.5,0,3.6,0.6,5.9,2.1V151.8L431.6,151.8z"/>
	<polygon fill="#FFFFFF" points="210.8,150.6 206.3,150.6 201,162 195.5,150.6 191,150.6 198.9,166.6 191.9,181.4 196.4,181.4 
		210.8,150.6 	"/>
	<path fill="#FFFFFF" d="M232.5,140H228v30c0,4.8-0.4,7.2-5.1,7.2h-1.1l0.8,4.1c0.5,0,0.8,0.1,1.4,0.1c6.2,0,8.5-4.3,8.5-10.1V140
		L232.5,140z"/>
	<path fill-rule="evenodd" clip-rule="evenodd" fill="#FFFFFF" d="M256.5,170.9v-20.4h-4v14.6c-1.3,1.9-3,2.9-4.9,2.9
		c-2.8,0-4.2-1.6-4.2-4.5v-12.9h-4v12.7c0,5.2,2.9,8.1,7,8.1c2,0,4.4-1.2,6-3v2.6H256.5L256.5,170.9z"/>
	<path fill="#FFFFFF" d="M287.4,150.6h-4v20.4h4v-14.6c1.9-2.1,3.3-2.9,5.1-2.9c2.4,0,4,1.9,4,4.9v12.6h4v-12.6
		c0-5.6-3.1-8.2-6.9-8.2c-2.3,0-4.5,1.1-6.1,3.1h-0.1V150.6L287.4,150.6z"/>
	<path fill-rule="evenodd" clip-rule="evenodd" fill="#FFFFFF" d="M365.9,167.3c-0.9,0.7-1.7,1.1-2.1,1.1c-0.5,0-0.8-0.3-0.8-1
		v-10.5c0-4.6-3.3-6.7-7.4-6.7c-2.9,0-5.2,0.9-6.8,2.8v4.4c2-2.3,4.2-3.4,6.4-3.4c2.5,0,3.7,1,3.7,3.6v1.1l-3.6,1.3
		c-3.3,1.2-6.9,2.4-6.9,6.4c0,2.6,2,5,5,5c1.9,0,3.7-0.7,5.5-2.1c0.4,1.5,1.3,2.1,3.1,2.1c1.3,0,2-0.4,3.9-1.6V167.3L365.9,167.3z
		 M359,166.8c-1.1,1-2.3,1.7-3.5,1.7c-1.7,0-2.9-1.2-2.9-2.9c0-2.4,3-3.6,6.4-4.8V166.8L359,166.8z"/>
	<path fill="#FFFFFF" d="M369.9,150.6v20.4h4v-10.7c0-3.5,2.2-6.3,4.9-6.3c1,0,2.5,0.8,3.8,2l2.1-3.5c-1.7-1.6-3.2-2.4-4.9-2.4
		c-1.9,0-3.9,1.5-5.9,5.1h-0.1v-4.7H369.9L369.9,150.6z"/>
</g>
</svg>
